<svg width="57" height="50" viewBox="0 0 57 50" fill="none" xmlns="http://www.w3.org/2000/svg">
<path d="M41.5331 42.4565C41.5331 42.4565 60.6366 34.8261 49.8083 24.5338C38.98 14.2416 23.6169 11.6731 14.7183 15.6399C5.81982 19.6067 4.946 35.9876 15.5599 42.4565H41.5331Z" fill="#CAE3BF"/>
<mask id="mask0_1359_529" style="mask-type:luminance" maskUnits="userSpaceOnUse" x="7" y="13" width="47" height="30">
<path d="M41.5331 42.4565C41.5331 42.4565 60.6366 34.8261 49.8083 24.5338C38.98 14.2416 23.6169 11.6731 14.7183 15.6399C5.81982 19.6067 4.946 35.9876 15.5599 42.4565H41.5331Z" fill="white"/>
</mask>
<g mask="url(#mask0_1359_529)">
<path d="M66.6469 25.4976C71.2242 35.4451 62.5607 43.9199 53.6184 43.4969C44.676 43.0739 46.0992 60.4675 57.2885 61.8407" stroke="white" stroke-miterlimit="10"/>
<path d="M65.0779 24.9148C69.6552 34.8623 60.9916 43.3371 52.0493 42.9141C43.107 42.4911 44.5302 59.8847 55.7195 61.2579" stroke="white" stroke-width="1.2222" stroke-miterlimit="10"/>
<path d="M63.5089 24.332C68.0862 34.2795 59.4227 42.7543 50.4804 42.3314C41.538 41.9084 42.9613 59.302 54.1506 60.6752" stroke="white" stroke-width="1.4444" stroke-miterlimit="10"/>
<path d="M61.94 23.7493C66.5172 33.6968 57.8537 42.1716 48.9114 41.7486C39.9691 41.3256 41.3923 58.7192 52.5816 60.0924" stroke="white" stroke-width="1.6667" stroke-miterlimit="10"/>
<path d="M60.371 23.1665C64.9482 33.114 56.2847 41.5888 47.3424 41.1658C38.4 40.7428 39.8233 58.1364 51.0126 59.5096" stroke="white" stroke-width="1.8889" stroke-miterlimit="10"/>
<path d="M58.802 22.5837C63.3792 32.5312 54.7157 41.0061 45.7734 40.583C36.831 40.16 38.2543 57.5537 49.4436 58.9269" stroke="white" stroke-width="2.1111" stroke-miterlimit="10"/>
<path d="M57.233 22.001C61.8102 31.9485 53.1467 40.4233 44.2044 40.0003C35.262 39.5773 36.6853 56.9709 47.8746 58.3441" stroke="white" stroke-width="2.3333" stroke-miterlimit="10"/>
<path d="M55.664 21.418C60.2412 31.3655 51.5777 39.8403 42.6354 39.4173C33.693 38.9943 35.1163 56.3879 46.3056 57.7611" stroke="white" stroke-width="2.5555" stroke-miterlimit="10"/>
<path d="M54.095 20.8352C58.6722 30.7827 50.0087 39.2575 41.0664 38.8345C32.124 38.4115 33.5473 55.8051 44.7366 57.1783" stroke="white" stroke-width="2.7778" stroke-miterlimit="10"/>
<path d="M52.526 20.2524C57.1032 30.1999 48.4397 38.6747 39.4974 38.2517C30.555 37.8287 31.9783 55.2224 43.1676 56.5956" stroke="white" stroke-width="3" stroke-miterlimit="10"/>
<path d="M50.957 19.6697C55.5343 29.6172 46.8707 38.092 37.9284 37.669C28.986 37.246 30.4093 54.6396 41.5986 56.0128" stroke="white" stroke-width="3.2222" stroke-miterlimit="10"/>
<path d="M49.388 19.0869C53.9652 29.0344 45.3017 37.5092 36.3594 37.0862C27.4171 36.6632 28.8403 54.0568 40.0296 55.43" stroke="white" stroke-width="3.4444" stroke-miterlimit="10"/>
<path d="M47.819 18.5042C52.3963 28.4516 43.7327 36.9265 34.7904 36.5035C25.8481 36.0805 27.2713 53.4741 38.4606 54.8473" stroke="white" stroke-width="3.6667" stroke-miterlimit="10"/>
<path d="M46.25 17.9214C50.8273 27.8689 42.1637 36.3437 33.2214 35.9207C24.279 35.4977 25.7023 52.8913 36.8916 54.2645" stroke="white" stroke-width="3.8889" stroke-miterlimit="10"/>
<path d="M44.681 17.3386C49.2583 27.2861 40.5947 35.7609 31.6524 35.3379C22.7101 34.9149 24.1333 52.3086 35.3226 53.6817" stroke="white" stroke-width="4.1111" stroke-miterlimit="10"/>
<path d="M43.112 16.7559C47.6893 26.7034 39.0257 35.1782 30.0834 34.7552C21.1411 34.3322 22.5643 51.7258 33.7536 53.099" stroke="white" stroke-width="4.3333" stroke-miterlimit="10"/>
<path d="M41.543 16.1731C46.1203 26.1206 37.4567 34.5954 28.5144 34.1724C19.5721 33.7494 20.9953 51.143 32.1846 52.5162" stroke="white" stroke-width="4.5556" stroke-miterlimit="10"/>
<path d="M39.974 15.5903C44.5513 25.5378 35.8877 34.0126 26.9454 33.5896C18.0031 33.1666 19.4263 50.5603 30.6156 51.9335" stroke="white" stroke-width="4.7778" stroke-miterlimit="10"/>
<path d="M38.405 15.0076C42.9823 24.9551 34.3187 33.4299 25.3764 33.0068C16.4341 32.5839 17.8573 49.9775 29.0466 51.3507" stroke="white" stroke-width="5" stroke-miterlimit="10"/>
<path d="M36.836 14.4246C41.4133 24.3721 32.7497 32.8469 23.8074 32.4239C14.8651 32.0009 16.2883 49.3945 27.4776 50.7677" stroke="white" stroke-width="5.2222" stroke-miterlimit="10"/>
<path d="M35.267 13.8418C39.8443 23.7893 31.1807 32.2641 22.2384 31.8411C13.2961 31.4181 14.7193 48.8117 25.9086 50.1849" stroke="white" stroke-width="5.4444" stroke-miterlimit="10"/>
<path d="M33.698 13.259C38.2753 23.2065 29.6117 31.6814 20.6694 31.2584C11.7271 30.8354 13.1503 48.229 24.3396 49.6022" stroke="white" stroke-width="5.6667" stroke-miterlimit="10"/>
<path d="M32.129 12.6763C36.7063 22.6238 28.0427 31.0986 19.1004 30.6756C10.1581 30.2526 11.5813 47.6462 22.7706 49.0194" stroke="white" stroke-width="5.8889" stroke-miterlimit="10"/>
<path d="M30.56 12.0935C35.1373 22.041 26.4737 30.5158 17.5314 30.0928C8.58907 29.6698 10.0123 47.0635 21.2016 48.4366" stroke="white" stroke-width="6.1111" stroke-miterlimit="10"/>
<path d="M28.991 11.5107C33.5683 21.4582 24.9047 29.9331 15.9624 29.51C7.02007 29.087 8.4433 46.4807 19.6326 47.8538" stroke="white" stroke-width="6.3333" stroke-miterlimit="10"/>
<path d="M27.422 10.928C31.9993 20.8755 23.3357 29.3503 14.3934 28.9273C5.45107 28.5043 6.8743 45.8979 18.0636 47.2711" stroke="white" stroke-width="6.5555" stroke-miterlimit="10"/>
<path d="M25.853 10.3452C30.4303 20.2927 21.7667 28.7675 12.8244 28.3445C3.88207 27.9215 5.3053 45.3152 16.4946 46.6884" stroke="white" stroke-width="6.7778" stroke-miterlimit="10"/>
<path d="M24.284 9.76245C28.8613 19.7099 20.1977 28.1848 11.2554 27.7618C2.31308 27.3388 3.7363 44.7324 14.9256 46.1056" stroke="white" stroke-width="7" stroke-miterlimit="10"/>
<path d="M22.715 9.17969C27.2922 19.1272 18.6288 27.602 9.68638 27.179C0.744072 26.756 2.1673 44.1496 13.3566 45.5228" stroke="white" stroke-width="7.2222" stroke-miterlimit="10"/>
<path d="M21.146 8.59692C25.7232 18.5444 17.0598 27.0193 8.11743 26.5962C-0.824925 26.1732 0.598294 43.5669 11.7876 44.94" stroke="white" stroke-width="7.4444" stroke-miterlimit="10"/>
<path d="M19.577 8.01392C24.1543 17.9614 15.4908 26.4362 6.54844 26.0132C-2.39389 25.5902 -0.970697 42.9839 10.2186 44.357" stroke="white" stroke-width="7.6667" stroke-miterlimit="10"/>
<path d="M18.008 7.43115C22.5853 17.3787 13.9217 25.8535 4.97942 25.4305C-3.96293 25.0075 -2.53967 42.4011 8.64959 43.7743" stroke="white" stroke-width="7.8889" stroke-miterlimit="10"/>
<path d="M16.439 6.84839C21.0163 16.7959 12.3527 25.2707 3.41037 24.8477C-5.53194 24.4247 -4.10871 41.8184 7.08065 43.1915" stroke="white" stroke-width="8.1111" stroke-miterlimit="10"/>
<path d="M14.87 6.26562C19.4473 16.2131 10.7837 24.688 1.84136 24.265C-7.10095 23.842 -5.67767 41.2356 5.51164 42.6088" stroke="white" stroke-width="8.3333" stroke-miterlimit="10"/>
<path d="M13.301 5.68286C17.8783 15.6304 9.21476 24.1052 0.272434 23.6822C-8.6699 23.2592 -7.24665 40.6528 3.94266 42.026" stroke="white" stroke-width="8.5556" stroke-miterlimit="10"/>
<path d="M11.732 5.1001C16.3093 15.0476 7.64571 23.5224 -1.29657 23.0994C-10.2389 22.6764 -8.81565 40.0701 2.37365 41.4432" stroke="white" stroke-width="8.7778" stroke-miterlimit="10"/>
<path d="M10.163 4.51733C14.7403 14.4649 6.07676 22.9397 -2.86556 22.5166C-11.8079 22.0937 -10.3846 39.4873 0.80466 40.8604" stroke="white" stroke-width="9" stroke-miterlimit="10"/>
</g>
<path d="M29.7071 0.406006H43.6547V8.38898H29.7071V0.406006Z" fill="#EEF6EA"/>
<path d="M41.6287 1.12793H42.808V2.30724H41.6287V1.12793Z" fill="white"/>
<path d="M35.0214 1.12793H41.2129V1.58909H35.0214V1.12793Z" fill="white"/>
<path d="M38.0756 1.84619H41.2129V2.30733H38.0756V1.84619Z" fill="white"/>
<path d="M41.6287 2.94897H42.808V4.12829H41.6287V2.94897Z" fill="white"/>
<path d="M35.0214 2.94897H41.2129V3.41011H35.0214V2.94897Z" fill="white"/>
<path d="M38.0756 3.66724H41.2129V4.12835H38.0756V3.66724Z" fill="white"/>
<path d="M41.6287 4.77002H42.808V5.94933H41.6287V4.77002Z" fill="white"/>
<path d="M35.0214 4.77002H41.2129V5.23116H35.0214V4.77002Z" fill="white"/>
<path d="M38.0756 5.48828H41.2129V5.94939H38.0756V5.48828Z" fill="white"/>
<path d="M41.6287 6.59131H42.808V7.77062H41.6287V6.59131Z" fill="white"/>
<path d="M35.0214 6.59131H41.2129V7.05242H35.0214V6.59131Z" fill="white"/>
<path d="M38.0756 7.30957H41.2129V7.77073H38.0756V7.30957Z" fill="white"/>
<path d="M30.0926 1.05981H34.5151V4.51082H30.0926V1.05981Z" fill="white"/>
<path d="M30.0926 4.93262H34.5151V7.87866H30.0926V4.93262Z" fill="white"/>
<path d="M34.1069 3.66711C33.8233 2.91946 33.3471 2.05011 32.9729 2.54902C32.5986 3.04796 32.0657 3.56803 31.941 3.41004C31.8162 3.25207 31.5441 2.74176 31.2152 2.69645C30.8864 2.65109 30.3194 3.66711 30.3194 3.66711H34.1069Z" fill="#8CC374"/>
<path d="M34.1069 7.22375C33.8233 6.47613 33.3471 5.60673 32.9729 6.10567C32.5986 6.60463 32.0657 7.12471 31.941 6.96671C31.8162 6.80872 31.5441 6.29846 31.2152 6.25312C30.8864 6.20774 30.3194 7.22375 30.3194 7.22375H34.1069Z" fill="#8CC374"/>
<path d="M42.7324 1.67607L42.4451 2.13718L41.7118 1.53243L41.7496 1.49463L42.4385 1.95104L42.7107 1.6477L42.7324 1.67607Z" fill="#F88178"/>
<path d="M42.7324 3.43657L42.4451 3.89773L41.7118 3.29293L41.7496 3.25513L42.4385 3.71156L42.7107 3.40822L42.7324 3.43657Z" fill="#F88178"/>
<path d="M42.7324 5.19726L42.4451 5.65842L41.7118 5.05367L41.7496 5.01587L42.4385 5.47225L42.7107 5.16894L42.7324 5.19726Z" fill="#F88178"/>
<path d="M42.7324 6.95805L42.4451 7.41916L41.7118 6.81441L41.7496 6.77661L42.4385 7.23302L42.7107 6.92968L42.7324 6.95805Z" fill="#F88178"/>
<path d="M33.1075 11.5129H47.0551V19.4959H33.1075V11.5129Z" fill="#EEF6EA"/>
<path d="M40.3773 12.4077H45.9565V12.7403H40.3773V12.4077Z" fill="white"/>
<path d="M42.6755 13.0276H45.9565V13.3602H42.6755V13.0276Z" fill="white"/>
<path d="M40.3773 14.2068H45.9565V14.5394H40.3773V14.2068Z" fill="white"/>
<path d="M42.6755 14.8267H45.9565V15.1593H42.6755V14.8267Z" fill="white"/>
<path d="M40.3773 16.0061H45.9565V16.3387H40.3773V16.0061Z" fill="white"/>
<path d="M42.6755 16.626H45.9565V16.9586H42.6755V16.626Z" fill="white"/>
<path d="M40.3773 17.8052H45.9565V18.1378H40.3773V17.8052Z" fill="white"/>
<path d="M42.6755 18.425H45.9565V18.7577H42.6755V18.425Z" fill="white"/>
<path d="M34.2088 15.6658C34.2088 17.0311 35.3156 18.1379 36.6809 18.1379C38.0462 18.1379 39.1529 17.0311 39.1529 15.6658C39.1529 14.3006 38.0462 13.1938 36.6809 13.1938C36.5933 13.1938 36.5067 13.1984 36.4214 13.2075L36.6809 15.6658L34.2376 15.2876C34.2185 15.4109 34.2088 15.5373 34.2088 15.6658Z" fill="#F88178"/>
<path d="M34.0184 15.0694L36.4617 15.4476L36.2022 12.9893C35.0841 13.1058 34.1876 13.9676 34.0184 15.0694Z" fill="#8CC374"/>
<path d="M0.84066 22.7979H8.59167V32.8153H0.84066V22.7979Z" fill="#EEF6EA"/>
<path d="M1.88923 23.6182H7.54314V24.0582H1.88923V23.6182Z" fill="white"/>
<path d="M1.88923 24.4861H7.54314V24.9261H1.88923V24.4861Z" fill="white"/>
<path d="M1.88923 25.354H7.54314V25.7941H1.88923V25.354Z" fill="white"/>
<path d="M3.71505 26.2222H7.54314V26.6622H3.71505V26.2222Z" fill="white"/>
<path d="M1.88923 27.0901H7.54314V27.5302H1.88923V27.0901Z" fill="white"/>
<path d="M1.88923 27.958H7.54314V28.3981H1.88923V27.958Z" fill="white"/>
<path d="M1.88932 29.7224H4.71629V32.1451H1.88932V29.7224Z" fill="white"/>
<path d="M4.94829 29.7224H7.54314V32.1451H4.94829V29.7224Z" fill="white"/>
<path d="M4.7162 28.8262H7.54314V29.2662H4.7162V28.8262Z" fill="white"/>
<path d="M7.02695 5.39014H14.778V15.4076H7.02695V5.39014Z" fill="#EEF6EA"/>
<path d="M8.07553 9.03442H13.7294V9.47446H8.07553V9.03442Z" fill="white"/>
<path d="M8.07553 9.90234H13.7294V10.3424H8.07553V9.90234Z" fill="white"/>
<path d="M8.0756 6.66602H10.9645V7.10606H8.0756V6.66602Z" fill="white"/>
<path d="M9.08076 7.53394H10.9645V7.97398H9.08076V7.53394Z" fill="white"/>
<path d="M8.0756 12.3359H10.9645V12.776H8.0756V12.3359Z" fill="white"/>
<path d="M9.08076 13.2039H10.9645V13.6439H9.08076V13.2039Z" fill="white"/>
<path d="M11.2257 11.9641H13.6383V14.2166H11.2257V11.9641Z" fill="white"/>
<path d="M10.9025 10.7703H13.7294V11.2103H10.9025V10.7703Z" fill="white"/>
<path d="M12.9322 7.73313C12.5614 7.73313 12.2607 7.43249 12.2607 7.06163C12.2607 6.69078 12.5614 6.39014 12.9322 6.39014C13.3031 6.39014 13.6037 6.69078 13.6037 7.06163C13.6037 7.43249 13.3031 7.73313 12.9322 7.73313Z" stroke="#F88178" stroke-width="8" stroke-miterlimit="10"/>
<path d="M12.4858 7.56299L11.4075 8.57687" stroke="#F88178" stroke-width="8" stroke-miterlimit="10"/>
<path d="M41.2087 22.2031H55.1562V30.1861H41.2087V22.2031Z" fill="#EEF6EA"/>
<path d="M51.9981 27.3521H52.8667V28.8796H51.9981V27.3521Z" fill="#F88178"/>
<path d="M50.4675 26.4492H51.3361V28.8796H50.4675V26.4492Z" fill="#8CC374"/>
<path d="M48.937 25.8245H49.8056V28.8796H48.937V25.8245Z" fill="#F88178"/>
<path d="M47.4064 27.094H48.275V28.8797H47.4064V27.094Z" fill="#8CC374"/>
<path d="M45.8759 25.5632H46.7445V28.8796H45.8759V25.5632Z" fill="#F88178"/>
<path d="M44.3454 24.3242H45.2139V28.8797H44.3454V24.3242Z" fill="#8CC374"/>
<path d="M53.8106 26.602C53.856 26.6568 49.2294 24.0563 49.2294 24.0563L48.1857 25.5633L44.4215 23.1492" stroke="#8CC374" stroke-width="6" stroke-miterlimit="10"/>
<path d="M51.5275 23.1492H54.1281V23.4818H51.5275V23.1492Z" fill="#CAE3BF"/>
<path d="M52.4952 23.8672H54.1281V24.1998H52.4952V23.8672Z" fill="#CAE3BF"/>
<path d="M37.6434 22.4697H42.5024V22.8664H37.6434V22.4697Z" fill="#8CC374"/>
<path d="M39.1618 23.1838H42.5024V23.5805H39.1618V23.1838Z" fill="#8CC374"/>
<path d="M38.5057 23.8982H42.5024V24.2948H38.5057V23.8982Z" fill="#8CC374"/>
<path d="M40.178 24.6123H42.5024V25.0089H40.178V24.6123Z" fill="#8CC374"/>
<path d="M4.71617 17.0852H9.41841V17.6576H4.71617V17.0852Z" fill="#F88178"/>
<path d="M4.71608 18.1157H11.7277V18.6881H4.71608V18.1157Z" fill="#F88178"/>
<path d="M6.90467 19.1465H11.4963V19.7188H6.90467V19.1465Z" fill="#F88178"/>
<path d="M8.37348 20.177H11.7277V20.7494H8.37348V20.177Z" fill="#F88178"/>
<path d="M33.4181 27.7695H39.3344V28.2525H33.4181V27.7695Z" fill="#EEF6EA"/>
<path d="M35.7717 28.6392H39.3344V29.1221H35.7717V28.6392Z" fill="#EEF6EA"/>
<path d="M33.4181 29.5088H39.3344V29.9917H33.4181V29.5088Z" fill="#EEF6EA"/>
<path d="M36.5041 30.3784H39.3344V30.8613H36.5041V30.3784Z" fill="#EEF6EA"/>
<path d="M28.2033 23.1252C29.9641 23.9781 30.2393 24.886 30.707 27.9948C31.1747 31.1037 32.1743 37.6973 32.1743 37.6973L28.7205 39.0179L26.1949 30.3975L28.2033 23.1252Z" fill="#8CC374"/>
<path d="M25.6448 21.9239L28.2034 23.1252C28.2034 23.1252 28.9248 26.3991 28.6466 28.6001C28.3685 30.801 27.4677 37.4038 27.9869 40.6319C28.093 41.292 28.1982 41.9259 28.2983 42.5169L16.2423 42.3784C16.4547 40.3402 16.6335 38.1664 16.5842 36.9774C16.4742 34.3225 15.0802 30.6543 15.0802 30.6543L14.3243 22.9435L16.9694 21.3186L23.8473 21.4837L25.6448 21.9239Z" fill="#B0D6A0"/>
<path d="M19.0282 35.478C19.6473 35.9182 19.8398 37.6881 18.9319 38.4768C18.9319 38.4768 17.8682 37.6514 17.8682 37.6148C17.8682 37.5781 17.7683 36.2025 17.7683 36.2025L18.4734 35.6798L19.0282 35.478Z" fill="#54A630"/>
<path d="M19.0178 35.7814C19.7717 35.6972 20.0347 35.1711 21.4375 34.6977C22.8403 34.2242 23.4803 34.1541 24.3834 34.1015C25.2865 34.0489 25.4267 34.084 25.4004 34.3557C25.3741 34.6275 25.076 34.724 24.4886 34.8116C23.9011 34.8993 23.4628 34.9311 23.4628 34.9311C23.4628 34.9311 25.3829 35.0309 25.7862 35.0309C26.1895 35.0309 27.6186 34.9783 27.601 35.3465C27.5835 35.7147 26.7945 35.8023 25.9879 35.8375C25.1812 35.8725 24.1467 35.8375 24.1467 35.8375C24.1467 35.8375 25.0147 36.0917 25.8301 36.1268C26.6454 36.1618 27.9781 36.1005 27.9868 36.6178C27.9956 37.1351 26.5841 36.9247 25.8563 36.8457C25.1286 36.7668 24.0678 36.7931 24.0678 36.7931C24.0678 36.7931 27.3643 37.363 27.3731 37.6436C27.3819 37.9241 26.8208 38.0206 25.4355 37.8365C24.0503 37.6523 23.8135 37.6085 23.8135 37.6085C23.8135 37.6085 26.2246 38.345 26.1457 38.6869C26.0667 39.0289 25.2251 38.8097 24.5149 38.6519C23.8048 38.4941 23.2261 38.3976 22.6474 38.5379C22.0688 38.6781 21.5296 38.4283 20.5301 38.1258C19.5306 37.8233 18.6231 38.1126 18.6231 38.1126L17.7684 37.0474L17.9787 35.8901L19.0178 35.7814Z" fill="#FFCC7B"/>
<path d="M23.8291 19.5761C23.719 20.6583 23.8291 20.9517 24.5994 21.4103C25.3697 21.8688 25.6449 21.9238 25.6449 21.9238C25.6449 21.9238 26.0667 22.5841 22.2701 22.419C18.4735 22.254 16.9694 21.3186 16.9694 21.3186C16.9694 21.3186 19.042 20.2731 19.5922 18.4206C20.1425 16.5682 20.1425 15.5044 20.1425 15.5044L23.2238 17.3385L23.8291 19.5761Z" fill="#EFB96A"/>
<path d="M28.1209 14.074C27.6807 15.1561 27.3507 16.0732 27.2222 16.8435C27.0938 17.6138 25.7366 19.5397 24.8012 19.9799C23.8657 20.42 21.5547 18.641 20.8578 17.3937C20.1608 16.1465 20.0324 15.688 20.0324 15.688C20.0324 15.688 19.3538 16.0732 18.7485 15.1561C18.1432 14.2391 17.9966 13.7071 18.5835 12.8818C19.1704 12.0565 23.4438 8.49824 25.7915 9.04849C28.1392 9.59871 28.4877 10.1673 28.5977 11.0294C28.7078 11.8914 28.5977 13.0286 28.5977 13.0286L28.1209 14.074Z" fill="#FFCC7B"/>
<path d="M26.9902 10.4288C28.6161 13.2577 26.3326 15.697 24.2693 15.2018C22.2058 14.7066 21.6097 14.4223 21.6097 14.4223L22.3984 12.3498C22.3984 12.3498 21.5823 13.8354 21.1879 14.2756C20.7936 14.7158 20.4635 14.1105 20.3993 14.349C20.3351 14.5874 20.2892 15.2871 20.0966 15.2491C19.9041 15.211 19.9224 14.4865 19.849 13.7987C19.7756 13.1109 19.2988 12.6066 18.9412 12.6891C18.5835 12.7716 18.5835 12.8817 18.5835 12.8817C18.5835 12.8817 18.2167 8.84661 20.4543 7.52603C22.6919 6.20548 24.9479 6.38891 26.6536 7.65445C28.3594 8.92 30.6337 11.8912 28.1209 14.0739C28.1209 14.0739 28.7548 12.3939 28.1075 11.0184C28.0942 10.99 28.0803 10.9618 28.0659 10.9338C28.0659 10.9338 28.5978 12.7533 27.5524 14.3123C27.5523 14.3123 28.6069 11.9279 26.9902 10.4288Z" fill="#1D1D1D"/>
<path d="M26.9902 10.4288C28.6161 13.2577 26.3326 15.697 24.2693 15.2018C22.2058 14.7066 21.6097 14.4223 21.6097 14.4223L22.3984 12.3498C22.3984 12.3498 21.5823 13.8354 21.1879 14.2756C20.7936 14.7158 20.4635 14.1105 20.3993 14.349C20.3351 14.5874 20.2892 15.2871 20.0966 15.2491C19.9041 15.211 19.9224 14.4865 19.849 13.7987C19.7756 13.1109 19.2988 12.6066 18.9412 12.6891C18.5835 12.7716 18.5835 12.8817 18.5835 12.8817C18.5835 12.8817 18.2167 8.84661 20.4543 7.52603C22.6919 6.20548 24.9479 6.38891 26.6536 7.65445C28.3594 8.92 30.6337 11.8912 28.1209 14.0739C28.1209 14.0739 28.7548 12.3939 28.1075 11.0184C28.0942 10.99 28.0803 10.9618 28.0659 10.9338C28.0659 10.9338 28.5978 12.7533 27.5524 14.3123C27.5523 14.3123 28.6069 11.9279 26.9902 10.4288Z" fill="black" fill-opacity="0.2"/>
<path d="M26.9902 10.4288C28.6161 13.2577 26.3326 15.697 24.2693 15.2018C22.2058 14.7066 21.6097 14.4223 21.6097 14.4223L22.3984 12.3498C22.3984 12.3498 21.5823 13.8354 21.1879 14.2756C20.7936 14.7158 20.4635 14.1105 20.3993 14.349C20.3351 14.5874 20.2892 15.2871 20.0966 15.2491C19.9041 15.211 19.9224 14.4865 19.849 13.7987C19.7756 13.1109 19.2988 12.6066 18.9412 12.6891C18.5835 12.7716 18.5835 12.8817 18.5835 12.8817C18.5835 12.8817 18.2167 8.84661 20.4543 7.52603C22.6919 6.20548 24.9479 6.38891 26.6536 7.65445C28.3594 8.92 30.6337 11.8912 28.1209 14.0739C28.1209 14.0739 28.7548 12.3939 28.1075 11.0184C28.0942 10.99 28.0803 10.9618 28.0659 10.9338C28.0659 10.9338 28.5978 12.7533 27.5524 14.3123C27.5523 14.3123 28.6069 11.9279 26.9902 10.4288Z" fill="black" fill-opacity="0.2"/>
<path d="M26.9902 10.4288C28.6161 13.2577 26.3326 15.697 24.2693 15.2018C22.2058 14.7066 21.6097 14.4223 21.6097 14.4223L22.3984 12.3498C22.3984 12.3498 21.5823 13.8354 21.1879 14.2756C20.7936 14.7158 20.4635 14.1105 20.3993 14.349C20.3351 14.5874 20.2892 15.2871 20.0966 15.2491C19.9041 15.211 19.9224 14.4865 19.849 13.7987C19.7756 13.1109 19.2988 12.6066 18.9412 12.6891C18.5835 12.7716 18.5835 12.8817 18.5835 12.8817C18.5835 12.8817 18.2167 8.84661 20.4543 7.52603C22.6919 6.20548 24.9479 6.38891 26.6536 7.65445C28.3594 8.92 30.6337 11.8912 28.1209 14.0739C28.1209 14.0739 28.7548 12.3939 28.1075 11.0184C28.0942 10.99 28.0803 10.9618 28.0659 10.9338C28.0659 10.9338 28.5978 12.7533 27.5524 14.3123C27.5523 14.3123 28.6069 11.9279 26.9902 10.4288Z" fill="black" fill-opacity="0.2"/>
<path d="M26.9902 10.4288C28.6161 13.2577 26.3326 15.697 24.2693 15.2018C22.2058 14.7066 21.6097 14.4223 21.6097 14.4223L22.3984 12.3498C22.3984 12.3498 21.5823 13.8354 21.1879 14.2756C20.7936 14.7158 20.4635 14.1105 20.3993 14.349C20.3351 14.5874 20.2892 15.2871 20.0966 15.2491C19.9041 15.211 19.9224 14.4865 19.849 13.7987C19.7756 13.1109 19.2988 12.6066 18.9412 12.6891C18.5835 12.7716 18.5835 12.8817 18.5835 12.8817C18.5835 12.8817 18.2167 8.84661 20.4543 7.52603C22.6919 6.20548 24.9479 6.38891 26.6536 7.65445C28.3594 8.92 30.6337 11.8912 28.1209 14.0739C28.1209 14.0739 28.7548 12.3939 28.1075 11.0184C28.0942 10.99 28.0803 10.9618 28.0659 10.9338C28.0659 10.9338 28.5978 12.7533 27.5524 14.3123C27.5523 14.3123 28.6069 11.9279 26.9902 10.4288Z" fill="black" fill-opacity="0.2"/>
<path d="M26.9902 10.4288C28.6161 13.2577 26.3326 15.697 24.2693 15.2018C22.2058 14.7066 21.6097 14.4223 21.6097 14.4223L22.3984 12.3498C22.3984 12.3498 21.5823 13.8354 21.1879 14.2756C20.7936 14.7158 20.4635 14.1105 20.3993 14.349C20.3351 14.5874 20.2892 15.2871 20.0966 15.2491C19.9041 15.211 19.9224 14.4865 19.849 13.7987C19.7756 13.1109 19.2988 12.6066 18.9412 12.6891C18.5835 12.7716 18.5835 12.8817 18.5835 12.8817C18.5835 12.8817 18.2167 8.84661 20.4543 7.52603C22.6919 6.20548 24.9479 6.38891 26.6536 7.65445C28.3594 8.92 30.6337 11.8912 28.1209 14.0739C28.1209 14.0739 28.7548 12.3939 28.1075 11.0184C28.0942 10.99 28.0803 10.9618 28.0659 10.9338C28.0659 10.9338 28.5978 12.7533 27.5524 14.3123C27.5523 14.3123 28.6069 11.9279 26.9902 10.4288Z" fill="black" fill-opacity="0.2"/>
<path d="M12.0266 39.5225C14.42 39.3847 18.932 38.477 18.932 38.477C18.932 38.477 18.2992 37.7342 18.478 36.6612C18.4847 36.6214 18.4917 36.5827 18.4989 36.5455C18.4989 36.5455 18.4989 36.5446 18.4991 36.5429C18.6846 35.58 19.0283 35.4783 19.0283 35.4783C19.0283 35.4783 14.764 35.3544 14.0348 35.2582C13.3057 35.1617 13.1406 35.1204 13.1406 35.1204C13.1406 35.1204 16.3825 30.8928 17.3912 28.2701C18.3999 25.6474 18.5178 25.0971 18.2113 24.3451C17.8878 23.551 17.3079 22.9301 16.628 22.632L16.6278 22.6318C15.5996 22.1813 14.342 22.4695 13.3928 24.0149C11.8155 26.5826 8.62403 34.9094 8.36723 37.404C8.11071 39.8983 9.63303 39.66 12.0266 39.5225Z" fill="#8CC374"/>
<path d="M9.34359 37.7254L13.1255 35.4781C13.1255 35.4781 17.56 35.7622 18.056 35.7464C18.5356 35.7308 18.5017 36.4923 18.4991 36.5427C18.6846 35.5798 19.0283 35.4781 19.0283 35.4781C19.0283 35.4781 14.764 35.3542 14.0348 35.258C13.3057 35.1615 13.1406 35.1202 13.1406 35.1202C13.1406 35.1202 16.3825 30.8926 17.3912 28.2699C18.3999 25.6472 18.5178 25.0969 18.2113 24.345C17.8878 23.5508 17.3079 22.9299 16.628 22.6318C18.7823 24.7765 17.5693 26.6225 16.6278 29.0405C15.6865 31.4585 13.208 34.4984 12.632 35.2503C12.0738 35.979 9.50247 37.6239 9.34359 37.7254Z" fill="#B0D6A0"/>
<path d="M16.8232 41.6091H42.9549V42.4566H16.8232V41.6091Z" fill="#686868"/>
<path d="M26.5351 41.6092H43.4069L49.4457 31.9631H32.574L26.5351 41.6092Z" fill="#686868"/>
<path d="M27.1025 41.6092H43.9743L50.0132 31.9631H33.1414L27.1025 41.6092Z" fill="#979797"/>
<path d="M13.111 42.4586H17.4678C17.4678 42.4586 17.2711 42.4586 16.7111 41.9514C16.1509 41.4441 15.0311 39.9513 13.351 39.0664C13.351 39.0664 12.8679 40.7555 12.8376 41.7498C12.8249 42.1692 12.8929 42.4648 13.111 42.4586Z" fill="#1D1D1D"/>
<path d="M13.111 42.4586H17.4678C17.4678 42.4586 17.2711 42.4586 16.7111 41.9514C16.1509 41.4441 15.0311 39.9513 13.351 39.0664C13.351 39.0664 12.8679 40.7555 12.8376 41.7498C12.8249 42.1692 12.8929 42.4648 13.111 42.4586Z" fill="black" fill-opacity="0.2"/>
<path d="M13.111 42.4586H17.4678C17.4678 42.4586 17.2711 42.4586 16.7111 41.9514C16.1509 41.4441 15.0311 39.9513 13.351 39.0664C13.351 39.0664 12.8679 40.7555 12.8376 41.7498C12.8249 42.1692 12.8929 42.4648 13.111 42.4586Z" fill="black" fill-opacity="0.2"/>
<path d="M13.111 42.4586H17.4678C17.4678 42.4586 17.2711 42.4586 16.7111 41.9514C16.1509 41.4441 15.0311 39.9513 13.351 39.0664C13.351 39.0664 12.8679 40.7555 12.8376 41.7498C12.8249 42.1692 12.8929 42.4648 13.111 42.4586Z" fill="black" fill-opacity="0.2"/>
<path d="M13.111 42.4586H17.4678C17.4678 42.4586 17.2711 42.4586 16.7111 41.9514C16.1509 41.4441 15.0311 39.9513 13.351 39.0664C13.351 39.0664 12.8679 40.7555 12.8376 41.7498C12.8249 42.1692 12.8929 42.4648 13.111 42.4586Z" fill="black" fill-opacity="0.2"/>
<path d="M13.111 42.4586H17.4678C17.4678 42.4586 17.2711 42.4586 16.7111 41.9514C16.1509 41.4441 15.0311 39.9513 13.351 39.0664C13.351 39.0664 12.8679 40.7555 12.8376 41.7498C12.8249 42.1692 12.8929 42.4648 13.111 42.4586Z" fill="black" fill-opacity="0.2"/>
<path d="M4.29352 44.2874C5.58952 45.4929 7.82246 51.0634 10.1104 48.9114C11.086 47.9938 7.14952 44.4074 6.14152 43.9514C5.13352 43.4954 5.13352 42.4874 5.13352 42.4874C5.13352 42.4874 5.4484 42.5128 5.9356 42.5452C7.4884 42.6479 10.7911 42.8202 11.2295 42.4586C11.4981 42.2368 11.9286 41.8679 12.3117 41.5374C12.7497 41.1594 13.1255 40.8314 13.1255 40.8314L13.0547 38.5804C12.023 36.6074 7.58152 36.5322 5.49352 37.7802C3.40552 39.0282 2.99752 43.0818 4.29352 44.2874Z" fill="#E8E8E8"/>
<path d="M9.68499 47.2427C9.75839 47.7594 9.75839 47.8075 9.37438 48.1275C8.99037 48.4474 9.01596 47.5354 8.62715 47.8074C8.23834 48.0795 7.82231 47.8074 7.37432 47.1514C6.92632 46.4955 6.86627 46.5755 6.37628 46.1595C5.88628 45.7434 5.07047 45.2793 5.07047 45.2793C5.07047 45.2793 6.41098 47.8075 7.39666 48.7035C8.38234 49.5994 9.23035 49.7783 9.91838 49.4009C10.6064 49.0235 10.5104 48.2314 10.3024 47.8954C10.0944 47.5594 9.68499 47.2427 9.68499 47.2427Z" fill="#1D1D1D"/>
<path d="M9.68499 47.2427C9.75839 47.7594 9.75839 47.8075 9.37438 48.1275C8.99037 48.4474 9.01596 47.5354 8.62715 47.8074C8.23834 48.0795 7.82231 47.8074 7.37432 47.1514C6.92632 46.4955 6.86627 46.5755 6.37628 46.1595C5.88628 45.7434 5.07047 45.2793 5.07047 45.2793C5.07047 45.2793 6.41098 47.8075 7.39666 48.7035C8.38234 49.5994 9.23035 49.7783 9.91838 49.4009C10.6064 49.0235 10.5104 48.2314 10.3024 47.8954C10.0944 47.5594 9.68499 47.2427 9.68499 47.2427Z" fill="black" fill-opacity="0.2"/>
<path d="M9.68499 47.2427C9.75839 47.7594 9.75839 47.8075 9.37438 48.1275C8.99037 48.4474 9.01596 47.5354 8.62715 47.8074C8.23834 48.0795 7.82231 47.8074 7.37432 47.1514C6.92632 46.4955 6.86627 46.5755 6.37628 46.1595C5.88628 45.7434 5.07047 45.2793 5.07047 45.2793C5.07047 45.2793 6.41098 47.8075 7.39666 48.7035C8.38234 49.5994 9.23035 49.7783 9.91838 49.4009C10.6064 49.0235 10.5104 48.2314 10.3024 47.8954C10.0944 47.5594 9.68499 47.2427 9.68499 47.2427Z" fill="black" fill-opacity="0.2"/>
<path d="M9.68499 47.2427C9.75839 47.7594 9.75839 47.8075 9.37438 48.1275C8.99037 48.4474 9.01596 47.5354 8.62715 47.8074C8.23834 48.0795 7.82231 47.8074 7.37432 47.1514C6.92632 46.4955 6.86627 46.5755 6.37628 46.1595C5.88628 45.7434 5.07047 45.2793 5.07047 45.2793C5.07047 45.2793 6.41098 47.8075 7.39666 48.7035C8.38234 49.5994 9.23035 49.7783 9.91838 49.4009C10.6064 49.0235 10.5104 48.2314 10.3024 47.8954C10.0944 47.5594 9.68499 47.2427 9.68499 47.2427Z" fill="black" fill-opacity="0.2"/>
<path d="M9.68499 47.2427C9.75839 47.7594 9.75839 47.8075 9.37438 48.1275C8.99037 48.4474 9.01596 47.5354 8.62715 47.8074C8.23834 48.0795 7.82231 47.8074 7.37432 47.1514C6.92632 46.4955 6.86627 46.5755 6.37628 46.1595C5.88628 45.7434 5.07047 45.2793 5.07047 45.2793C5.07047 45.2793 6.41098 47.8075 7.39666 48.7035C8.38234 49.5994 9.23035 49.7783 9.91838 49.4009C10.6064 49.0235 10.5104 48.2314 10.3024 47.8954C10.0944 47.5594 9.68499 47.2427 9.68499 47.2427Z" fill="black" fill-opacity="0.2"/>
<path d="M9.68499 47.2427C9.75839 47.7594 9.75839 47.8075 9.37438 48.1275C8.99037 48.4474 9.01596 47.5354 8.62715 47.8074C8.23834 48.0795 7.82231 47.8074 7.37432 47.1514C6.92632 46.4955 6.86627 46.5755 6.37628 46.1595C5.88628 45.7434 5.07047 45.2793 5.07047 45.2793C5.07047 45.2793 6.41098 47.8075 7.39666 48.7035C8.38234 49.5994 9.23035 49.7783 9.91838 49.4009C10.6064 49.0235 10.5104 48.2314 10.3024 47.8954C10.0944 47.5594 9.68499 47.2427 9.68499 47.2427Z" fill="black" fill-opacity="0.2"/>
<path d="M5.93544 42.5454C6.57434 42.5876 7.5099 42.6416 8.42001 42.6656C9.72153 42.6995 10.9715 42.6716 11.2295 42.4587C11.4609 42.2677 11.8123 41.9677 12.15 41.6771C12.2044 41.63 12.2584 41.5835 12.3117 41.5376C12.268 40.6489 12.2224 39.7311 12.2224 39.7311L12.3904 37.8315C10.9984 37.4715 10.0156 37.9275 9.79908 38.2875C9.58236 38.6475 9.31835 38.5275 8.52633 38.8155C7.73431 39.1035 7.0863 38.5035 6.70229 39.2955C6.31828 40.0875 7.3311 40.8397 7.2207 41.4116C7.1103 41.9835 6.55829 42.0755 6.24628 42.0294C6.04753 42.0001 5.91699 42.2617 5.93544 42.5454Z" fill="#1D1D1D"/>
<path d="M5.93544 42.5454C6.57434 42.5876 7.5099 42.6416 8.42001 42.6656C9.72153 42.6995 10.9715 42.6716 11.2295 42.4587C11.4609 42.2677 11.8123 41.9677 12.15 41.6771C12.2044 41.63 12.2584 41.5835 12.3117 41.5376C12.268 40.6489 12.2224 39.7311 12.2224 39.7311L12.3904 37.8315C10.9984 37.4715 10.0156 37.9275 9.79908 38.2875C9.58236 38.6475 9.31835 38.5275 8.52633 38.8155C7.73431 39.1035 7.0863 38.5035 6.70229 39.2955C6.31828 40.0875 7.3311 40.8397 7.2207 41.4116C7.1103 41.9835 6.55829 42.0755 6.24628 42.0294C6.04753 42.0001 5.91699 42.2617 5.93544 42.5454Z" fill="black" fill-opacity="0.2"/>
<path d="M5.93544 42.5454C6.57434 42.5876 7.5099 42.6416 8.42001 42.6656C9.72153 42.6995 10.9715 42.6716 11.2295 42.4587C11.4609 42.2677 11.8123 41.9677 12.15 41.6771C12.2044 41.63 12.2584 41.5835 12.3117 41.5376C12.268 40.6489 12.2224 39.7311 12.2224 39.7311L12.3904 37.8315C10.9984 37.4715 10.0156 37.9275 9.79908 38.2875C9.58236 38.6475 9.31835 38.5275 8.52633 38.8155C7.73431 39.1035 7.0863 38.5035 6.70229 39.2955C6.31828 40.0875 7.3311 40.8397 7.2207 41.4116C7.1103 41.9835 6.55829 42.0755 6.24628 42.0294C6.04753 42.0001 5.91699 42.2617 5.93544 42.5454Z" fill="black" fill-opacity="0.2"/>
<path d="M5.93544 42.5454C6.57434 42.5876 7.5099 42.6416 8.42001 42.6656C9.72153 42.6995 10.9715 42.6716 11.2295 42.4587C11.4609 42.2677 11.8123 41.9677 12.15 41.6771C12.2044 41.63 12.2584 41.5835 12.3117 41.5376C12.268 40.6489 12.2224 39.7311 12.2224 39.7311L12.3904 37.8315C10.9984 37.4715 10.0156 37.9275 9.79908 38.2875C9.58236 38.6475 9.31835 38.5275 8.52633 38.8155C7.73431 39.1035 7.0863 38.5035 6.70229 39.2955C6.31828 40.0875 7.3311 40.8397 7.2207 41.4116C7.1103 41.9835 6.55829 42.0755 6.24628 42.0294C6.04753 42.0001 5.91699 42.2617 5.93544 42.5454Z" fill="black" fill-opacity="0.2"/>
<path d="M5.93544 42.5454C6.57434 42.5876 7.5099 42.6416 8.42001 42.6656C9.72153 42.6995 10.9715 42.6716 11.2295 42.4587C11.4609 42.2677 11.8123 41.9677 12.15 41.6771C12.2044 41.63 12.2584 41.5835 12.3117 41.5376C12.268 40.6489 12.2224 39.7311 12.2224 39.7311L12.3904 37.8315C10.9984 37.4715 10.0156 37.9275 9.79908 38.2875C9.58236 38.6475 9.31835 38.5275 8.52633 38.8155C7.73431 39.1035 7.0863 38.5035 6.70229 39.2955C6.31828 40.0875 7.3311 40.8397 7.2207 41.4116C7.1103 41.9835 6.55829 42.0755 6.24628 42.0294C6.04753 42.0001 5.91699 42.2617 5.93544 42.5454Z" fill="black" fill-opacity="0.2"/>
<path d="M5.93544 42.5454C6.57434 42.5876 7.5099 42.6416 8.42001 42.6656C9.72153 42.6995 10.9715 42.6716 11.2295 42.4587C11.4609 42.2677 11.8123 41.9677 12.15 41.6771C12.2044 41.63 12.2584 41.5835 12.3117 41.5376C12.268 40.6489 12.2224 39.7311 12.2224 39.7311L12.3904 37.8315C10.9984 37.4715 10.0156 37.9275 9.79908 38.2875C9.58236 38.6475 9.31835 38.5275 8.52633 38.8155C7.73431 39.1035 7.0863 38.5035 6.70229 39.2955C6.31828 40.0875 7.3311 40.8397 7.2207 41.4116C7.1103 41.9835 6.55829 42.0755 6.24628 42.0294C6.04753 42.0001 5.91699 42.2617 5.93544 42.5454Z" fill="black" fill-opacity="0.2"/>
<path d="M13.111 42.4587H17.4424C17.1914 42.3596 16.8864 42.1435 16.3444 42.0735C16.0331 42.0333 14.2351 41.8808 14.1469 41.7435C13.9823 41.4875 13.568 41.2417 13.0311 41.6687C12.979 41.7099 12.9137 41.7361 12.8376 41.75C12.8249 42.1693 12.8929 42.465 13.111 42.4587Z" fill="#E8E8E8"/>
<path d="M7.88654 42.6655C9.18807 42.6994 10.9715 42.6715 11.2295 42.4586C11.4609 42.2676 11.8122 41.9676 12.1499 41.677C11.3783 41.4763 10.4111 41.0071 10.1744 41.2195C9.82233 41.5354 9.23768 41.2166 9.16208 41.6002C9.08624 41.9834 8.98911 42.0674 8.51029 42.3122C8.37736 42.3801 7.9559 42.5724 7.88654 42.6655Z" fill="#E8E8E8"/>
<path d="M9.28686 40.6076C9.4659 41.3105 9.67519 41.7716 9.94784 42.0716C10.333 42.4954 10.8443 42.5981 11.5751 42.6075C12.8231 42.6236 13.1111 42.4587 13.1111 42.4587C15.1272 40.6714 13.863 37.9354 12.183 37.7914C11.2688 37.7132 10.3642 38.0516 9.79903 38.6497C9.32526 39.1508 9.08981 39.8343 9.28686 40.6076Z" fill="#E8E8E8"/>
<path d="M9.63905 40.1114C7.43899 39.2554 7.22133 40.1114 7.22133 40.1114C7.22133 40.1114 7.11899 40.8474 9.57504 40.9594C10.5681 41.0047 9.63905 40.1943 9.63905 40.1943V40.1114Z" fill="#EAA03D"/>
<path d="M9.28692 40.6076C9.46596 41.3106 9.67525 41.7716 9.94789 42.0716C10.817 42.1066 11.2158 41.6086 11.2384 41.2755C11.2622 40.9239 12.1624 41.0475 12.0059 40.6275C11.8497 40.2075 11.5744 40.1115 11.3224 39.7311C11.0704 39.3507 10.5784 39.6435 9.79909 38.6497C9.32532 39.1508 9.08987 39.8343 9.28692 40.6076Z" fill="#EAA03D"/>
<path d="M12.7003 38.9514C14.3819 37.2946 13.69 36.7456 13.69 36.7456C13.69 36.7456 13.0603 36.351 11.9527 38.5459C11.5049 39.4334 12.6246 38.9175 12.6246 38.9175L12.7003 38.9514Z" fill="#E8E8E8"/>
<path d="M13.2311 41.9153C13.2311 42.2337 12.935 42.3835 12.719 42.2795C12.503 42.1755 12.591 42.0312 12.879 41.9153C13.1671 41.7995 13.2311 41.7512 13.2311 41.9153Z" fill="#4A4A4A"/>
<path d="M11.8464 41.5818L9.01495 41.7435L11.8477 41.6057L11.8464 41.5818Z" fill="#979797"/>
<path d="M11.8993 41.7322L9.27097 42.6086L11.9068 41.755L11.8993 41.7322Z" fill="#979797"/>
<path d="M11.9998 41.8442L9.79901 43.1795L12.0122 41.8648L11.9998 41.8442Z" fill="#979797"/>
<path d="M13.269 41.2307L15.9033 40.1802L13.2602 41.2084L13.269 41.2307Z" fill="#979797"/>
<path d="M13.1712 41.1051L15.3864 39.4409L13.1569 41.0858L13.1712 41.1051Z" fill="#979797"/>
<path d="M13.0404 41.0305L14.7047 39.0667L13.0221 41.0148L13.0404 41.0305Z" fill="#979797"/>
<path d="M9.79907 36.9831C9.76242 37.6036 9.16241 38.0613 8.93441 37.8924C8.7064 37.7236 8.53604 37.4249 8.33921 37.7002C8.14239 37.9756 8.11839 38.1252 7.72238 37.7804C7.32637 37.4356 6.64485 37.2879 6.64485 37.2879C6.64485 37.2879 8.1517 36.7666 9.79907 36.9831Z" fill="#EAA03D"/>
<path d="M6.4504 40.4716C6.83751 40.7432 6.93042 40.7351 6.72641 41.0954C6.52241 41.4556 6.01731 41.5756 5.93386 41.1556C5.85041 40.7356 6.19384 40.2915 6.4504 40.4716Z" fill="#EAA03D"/>
</svg>
